<?xml version="1.0" encoding="UTF-8" standalone="no"?>
<!DOCTYPE svg PUBLIC "-//W3C//DTD SVG 1.1//EN"
 "http://www.w3.org/Graphics/SVG/1.1/DTD/svg11.dtd">
<!-- Generated by graphviz version 2.40.1 (20161225.0304)
 -->
<!-- Title: %3 Pages: 1 -->
<svg width="1965pt" height="759pt"
 viewBox="0.00 0.00 1964.71 758.67" xmlns="http://www.w3.org/2000/svg" xmlns:xlink="http://www.w3.org/1999/xlink">
<g id="graph0" class="graph" transform="scale(1 1) rotate(0) translate(4 754.668)">
<title>%3</title>
<polygon fill="#ffffff" stroke="transparent" points="-4,4 -4,-754.668 1960.7061,-754.668 1960.7061,4 -4,4"/>
<!-- 0 -->
<g id="node1" class="node">
<title>0</title>
<ellipse fill="none" stroke="#000000" cx="960.5186" cy="-706.241" rx="44.3543" ry="44.3543"/>
<text text-anchor="middle" x="960.5186" y="-702.041" font-family="Times,serif" font-size="14.00" fill="#000000">PAY_2&lt;2</text>
</g>
<!-- 1 -->
<g id="node2" class="node">
<title>1</title>
<ellipse fill="none" stroke="#000000" cx="709.5186" cy="-567.3868" rx="44.3543" ry="44.3543"/>
<text text-anchor="middle" x="709.5186" y="-563.1868" font-family="Times,serif" font-size="14.00" fill="#000000">PAY_6&lt;2</text>
</g>
<!-- 0&#45;&gt;1 -->
<g id="edge1" class="edge">
<title>0&#45;&gt;1</title>
<path fill="none" stroke="#0000ff" d="M921.5752,-684.6974C877.3339,-660.2229 805.1123,-620.2696 757.4488,-593.902"/>
<polygon fill="#0000ff" stroke="#0000ff" points="758.9978,-590.7591 748.5533,-588.981 755.6093,-596.8843 758.9978,-590.7591"/>
<text text-anchor="middle" x="878.1323" y="-632.6139" font-family="Times,serif" font-size="14.00" fill="#000000">yes, missing</text>
</g>
<!-- 2 -->
<g id="node3" class="node">
<title>2</title>
<ellipse fill="none" stroke="#000000" cx="1235.5186" cy="-567.3868" rx="44.3543" ry="44.3543"/>
<text text-anchor="middle" x="1235.5186" y="-563.1868" font-family="Times,serif" font-size="14.00" fill="#000000">PAY_6&lt;2</text>
</g>
<!-- 0&#45;&gt;2 -->
<g id="edge2" class="edge">
<title>0&#45;&gt;2</title>
<path fill="none" stroke="#ff0000" d="M1000.2122,-686.1987C1049.4636,-661.3305 1133.4268,-618.9354 1186.6053,-592.0843"/>
<polygon fill="#ff0000" stroke="#ff0000" points="1188.4878,-595.0547 1195.8369,-587.423 1185.3327,-588.806 1188.4878,-595.0547"/>
<text text-anchor="middle" x="1113.5186" y="-632.6139" font-family="Times,serif" font-size="14.00" fill="#000000">no</text>
</g>
<!-- 3 -->
<g id="node4" class="node">
<title>3</title>
<ellipse fill="none" stroke="#000000" cx="389.5186" cy="-396.4578" rx="76.5038" ry="76.5038"/>
<text text-anchor="middle" x="389.5186" y="-392.2578" font-family="Times,serif" font-size="14.00" fill="#000000">BILL_AMT1&lt;782</text>
</g>
<!-- 1&#45;&gt;3 -->
<g id="edge3" class="edge">
<title>1&#45;&gt;3</title>
<path fill="none" stroke="#0000ff" d="M670.2803,-546.4276C619.5924,-519.3525 530.246,-471.6279 465.941,-437.2791"/>
<polygon fill="#0000ff" stroke="#0000ff" points="467.5097,-434.1491 457.0401,-432.5247 464.2116,-440.3235 467.5097,-434.1491"/>
<text text-anchor="middle" x="623.1323" y="-493.7598" font-family="Times,serif" font-size="14.00" fill="#000000">yes, missing</text>
</g>
<!-- 4 -->
<g id="node5" class="node">
<title>4</title>
<ellipse fill="none" stroke="#000000" cx="709.5186" cy="-396.4578" rx="76.5038" ry="76.5038"/>
<text text-anchor="middle" x="709.5186" y="-392.2578" font-family="Times,serif" font-size="14.00" fill="#000000">BILL_AMT4&lt;295</text>
</g>
<!-- 1&#45;&gt;4 -->
<g id="edge4" class="edge">
<title>1&#45;&gt;4</title>
<path fill="none" stroke="#ff0000" d="M709.5186,-522.9235C709.5186,-510.6655 709.5186,-496.9328 709.5186,-483.1572"/>
<polygon fill="#ff0000" stroke="#ff0000" points="713.0187,-483.1394 709.5186,-473.1394 706.0187,-483.1395 713.0187,-483.1394"/>
<text text-anchor="middle" x="716.5186" y="-493.7598" font-family="Times,serif" font-size="14.00" fill="#000000">no</text>
</g>
<!-- 5 -->
<g id="node18" class="node">
<title>5</title>
<ellipse fill="none" stroke="#000000" cx="1235.5186" cy="-396.4578" rx="44.3543" ry="44.3543"/>
<text text-anchor="middle" x="1235.5186" y="-392.2578" font-family="Times,serif" font-size="14.00" fill="#000000">PAY_3&lt;2</text>
</g>
<!-- 2&#45;&gt;5 -->
<g id="edge17" class="edge">
<title>2&#45;&gt;5</title>
<path fill="none" stroke="#0000ff" d="M1235.5186,-522.9235C1235.5186,-500.9511 1235.5186,-474.2404 1235.5186,-451.0384"/>
<polygon fill="#0000ff" stroke="#0000ff" points="1239.0187,-450.9952 1235.5186,-440.9952 1232.0187,-450.9952 1239.0187,-450.9952"/>
<text text-anchor="middle" x="1270.1323" y="-493.7598" font-family="Times,serif" font-size="14.00" fill="#000000">yes, missing</text>
</g>
<!-- 6 -->
<g id="node19" class="node">
<title>6</title>
<ellipse fill="none" stroke="#000000" cx="1563.5186" cy="-396.4578" rx="37.8826" ry="37.8826"/>
<text text-anchor="middle" x="1563.5186" y="-392.2578" font-family="Times,serif" font-size="14.00" fill="#000000">ID&lt;672</text>
</g>
<!-- 2&#45;&gt;6 -->
<g id="edge18" class="edge">
<title>2&#45;&gt;6</title>
<path fill="none" stroke="#ff0000" d="M1275.083,-546.7688C1337.1198,-514.4399 1456.785,-452.0794 1520.7456,-418.7479"/>
<polygon fill="#ff0000" stroke="#ff0000" points="1522.5141,-421.7731 1529.7647,-414.0478 1519.2791,-415.5654 1522.5141,-421.7731"/>
<text text-anchor="middle" x="1387.5186" y="-493.7598" font-family="Times,serif" font-size="14.00" fill="#000000">no</text>
</g>
<!-- 7 -->
<g id="node6" class="node">
<title>7</title>
<ellipse fill="none" stroke="#000000" cx="178.5186" cy="-177.978" rx="79.6096" ry="79.6096"/>
<text text-anchor="middle" x="178.5186" y="-173.778" font-family="Times,serif" font-size="14.00" fill="#000000">PAY_AMT6&lt;581.5</text>
</g>
<!-- 3&#45;&gt;7 -->
<g id="edge5" class="edge">
<title>3&#45;&gt;7</title>
<path fill="none" stroke="#0000ff" d="M336.2743,-341.3262C307.3404,-311.3665 271.391,-274.1427 241.1205,-242.7992"/>
<polygon fill="#0000ff" stroke="#0000ff" points="243.4208,-240.1427 233.9563,-235.381 238.3856,-245.0056 243.4208,-240.1427"/>
<text text-anchor="middle" x="332.1323" y="-290.7559" font-family="Times,serif" font-size="14.00" fill="#000000">yes, missing</text>
</g>
<!-- 8 -->
<g id="node7" class="node">
<title>8</title>
<ellipse fill="none" stroke="#000000" cx="389.5186" cy="-177.978" rx="83.7374" ry="83.7374"/>
<text text-anchor="middle" x="389.5186" y="-173.778" font-family="Times,serif" font-size="14.00" fill="#000000">LIMIT_BAL&lt;95000</text>
</g>
<!-- 3&#45;&gt;8 -->
<g id="edge6" class="edge">
<title>3&#45;&gt;8</title>
<path fill="none" stroke="#ff0000" d="M389.5186,-319.7372C389.5186,-304.4063 389.5186,-288.1352 389.5186,-272.291"/>
<polygon fill="#ff0000" stroke="#ff0000" points="393.0187,-271.9549 389.5186,-261.9549 386.0187,-271.9549 393.0187,-271.9549"/>
<text text-anchor="middle" x="396.5186" y="-290.7559" font-family="Times,serif" font-size="14.00" fill="#000000">no</text>
</g>
<!-- 9 -->
<g id="node12" class="node">
<title>9</title>
<ellipse fill="none" stroke="#000000" cx="634.5186" cy="-177.978" rx="81.8157" ry="81.8157"/>
<text text-anchor="middle" x="634.5186" y="-173.778" font-family="Times,serif" font-size="14.00" fill="#000000">BILL_AMT2&lt;&#45;36.5</text>
</g>
<!-- 4&#45;&gt;9 -->
<g id="edge11" class="edge">
<title>4&#45;&gt;9</title>
<path fill="none" stroke="#0000ff" d="M684.6488,-324.0107C678.1628,-305.1166 671.1061,-284.5599 664.3902,-264.996"/>
<polygon fill="#0000ff" stroke="#0000ff" points="667.6819,-263.8051 661.1247,-255.4833 661.0612,-266.078 667.6819,-263.8051"/>
<text text-anchor="middle" x="711.1323" y="-290.7559" font-family="Times,serif" font-size="14.00" fill="#000000">yes, missing</text>
</g>
<!-- 10 -->
<g id="node13" class="node">
<title>10</title>
<ellipse fill="none" stroke="#000000" cx="822.5186" cy="-177.978" rx="88.0811" ry="88.0811"/>
<text text-anchor="middle" x="822.5186" y="-173.778" font-family="Times,serif" font-size="14.00" fill="#000000">LIMIT_BAL&lt;135000</text>
</g>
<!-- 4&#45;&gt;10 -->
<g id="edge12" class="edge">
<title>4&#45;&gt;10</title>
<path fill="none" stroke="#ff0000" d="M744.8076,-328.2281C755.0177,-308.4875 766.3089,-286.6566 777.047,-265.8949"/>
<polygon fill="#ff0000" stroke="#ff0000" points="780.2873,-267.2486 781.7726,-256.7583 774.0697,-264.0327 780.2873,-267.2486"/>
<text text-anchor="middle" x="770.5186" y="-290.7559" font-family="Times,serif" font-size="14.00" fill="#000000">no</text>
</g>
<!-- 15 -->
<g id="node8" class="node">
<title>15</title>
<polygon fill="none" stroke="#000000" points="109.0557,-36 -.0186,-36 -.0186,0 109.0557,0 109.0557,-36"/>
<text text-anchor="middle" x="54.5186" y="-13.8" font-family="Times,serif" font-size="14.00" fill="#000000">leaf=&#45;0.0917348</text>
</g>
<!-- 7&#45;&gt;15 -->
<g id="edge7" class="edge">
<title>7&#45;&gt;15</title>
<path fill="none" stroke="#0000ff" d="M129.5105,-114.7504C110.4045,-90.1009 89.575,-63.2279 74.7278,-44.0729"/>
<polygon fill="#0000ff" stroke="#0000ff" points="77.4471,-41.8679 68.5545,-36.1084 71.9144,-46.1563 77.4471,-41.8679"/>
<text text-anchor="middle" x="126.1323" y="-56.8" font-family="Times,serif" font-size="14.00" fill="#000000">yes, missing</text>
</g>
<!-- 16 -->
<g id="node9" class="node">
<title>16</title>
<polygon fill="none" stroke="#000000" points="229.5557,-36 127.4814,-36 127.4814,0 229.5557,0 229.5557,-36"/>
<text text-anchor="middle" x="178.5186" y="-13.8" font-family="Times,serif" font-size="14.00" fill="#000000">leaf=&#45;0.133861</text>
</g>
<!-- 7&#45;&gt;16 -->
<g id="edge8" class="edge">
<title>7&#45;&gt;16</title>
<path fill="none" stroke="#ff0000" d="M178.5186,-97.989C178.5186,-79.4393 178.5186,-60.8896 178.5186,-46.3302"/>
<polygon fill="#ff0000" stroke="#ff0000" points="182.0187,-46.0405 178.5186,-36.0405 175.0187,-46.0406 182.0187,-46.0405"/>
<text text-anchor="middle" x="185.5186" y="-56.8" font-family="Times,serif" font-size="14.00" fill="#000000">no</text>
</g>
<!-- 17 -->
<g id="node10" class="node">
<title>17</title>
<polygon fill="none" stroke="#000000" points="349.5557,-36 247.4814,-36 247.4814,0 349.5557,0 349.5557,-36"/>
<text text-anchor="middle" x="298.5186" y="-13.8" font-family="Times,serif" font-size="14.00" fill="#000000">leaf=&#45;0.122653</text>
</g>
<!-- 8&#45;&gt;17 -->
<g id="edge9" class="edge">
<title>8&#45;&gt;17</title>
<path fill="none" stroke="#0000ff" d="M348.013,-105.0112C335.8656,-83.6561 323.3356,-61.6283 313.922,-45.0793"/>
<polygon fill="#0000ff" stroke="#0000ff" points="316.7527,-42.9767 308.7661,-36.0151 310.6682,-46.4378 316.7527,-42.9767"/>
<text text-anchor="middle" x="360.1323" y="-56.8" font-family="Times,serif" font-size="14.00" fill="#000000">yes, missing</text>
</g>
<!-- 18 -->
<g id="node11" class="node">
<title>18</title>
<polygon fill="none" stroke="#000000" points="469.5557,-36 367.4814,-36 367.4814,0 469.5557,0 469.5557,-36"/>
<text text-anchor="middle" x="418.5186" y="-13.8" font-family="Times,serif" font-size="14.00" fill="#000000">leaf=&#45;0.157165</text>
</g>
<!-- 8&#45;&gt;18 -->
<g id="edge10" class="edge">
<title>8&#45;&gt;18</title>
<path fill="none" stroke="#ff0000" d="M404.5282,-95.1774C407.7126,-77.6109 410.8642,-60.2254 413.3676,-46.4154"/>
<polygon fill="#ff0000" stroke="#ff0000" points="416.8846,-46.6354 415.2245,-36.1715 409.9969,-45.3868 416.8846,-46.6354"/>
<text text-anchor="middle" x="418.5186" y="-56.8" font-family="Times,serif" font-size="14.00" fill="#000000">no</text>
</g>
<!-- 19 -->
<g id="node14" class="node">
<title>19</title>
<polygon fill="none" stroke="#000000" points="597.0557,-36 487.9814,-36 487.9814,0 597.0557,0 597.0557,-36"/>
<text text-anchor="middle" x="542.5186" y="-13.8" font-family="Times,serif" font-size="14.00" fill="#000000">leaf=&#45;0.0222222</text>
</g>
<!-- 9&#45;&gt;19 -->
<g id="edge13" class="edge">
<title>9&#45;&gt;19</title>
<path fill="none" stroke="#0000ff" d="M593.6302,-106.8777C580.9968,-84.9096 567.8427,-62.0359 558.0431,-44.9955"/>
<polygon fill="#0000ff" stroke="#0000ff" points="560.9879,-43.0954 552.9686,-36.1715 554.9198,-46.5851 560.9879,-43.0954"/>
<text text-anchor="middle" x="605.1323" y="-56.8" font-family="Times,serif" font-size="14.00" fill="#000000">yes, missing</text>
</g>
<!-- 20 -->
<g id="node15" class="node">
<title>20</title>
<polygon fill="none" stroke="#000000" points="717.5557,-36 615.4814,-36 615.4814,0 717.5557,0 717.5557,-36"/>
<text text-anchor="middle" x="666.5186" y="-13.8" font-family="Times,serif" font-size="14.00" fill="#000000">leaf=&#45;0.138889</text>
</g>
<!-- 9&#45;&gt;20 -->
<g id="edge14" class="edge">
<title>9&#45;&gt;20</title>
<path fill="none" stroke="#ff0000" d="M650.6123,-97.5203C654.2834,-79.1674 657.9479,-60.8473 660.8328,-46.4251"/>
<polygon fill="#ff0000" stroke="#ff0000" points="664.3446,-46.7123 662.874,-36.2201 657.4805,-45.3393 664.3446,-46.7123"/>
<text text-anchor="middle" x="666.5186" y="-56.8" font-family="Times,serif" font-size="14.00" fill="#000000">no</text>
</g>
<!-- 21 -->
<g id="node16" class="node">
<title>21</title>
<polygon fill="none" stroke="#000000" points="845.0557,-36 735.9814,-36 735.9814,0 845.0557,0 845.0557,-36"/>
<text text-anchor="middle" x="790.5186" y="-13.8" font-family="Times,serif" font-size="14.00" fill="#000000">leaf=&#45;0.0470914</text>
</g>
<!-- 10&#45;&gt;21 -->
<g id="edge15" class="edge">
<title>10&#45;&gt;21</title>
<path fill="none" stroke="#0000ff" d="M805.1139,-90.9667C801.8615,-74.7067 798.687,-58.8366 796.1337,-46.0721"/>
<polygon fill="#0000ff" stroke="#0000ff" points="799.5406,-45.2591 794.147,-36.1399 792.6765,-46.6322 799.5406,-45.2591"/>
<text text-anchor="middle" x="835.1323" y="-56.8" font-family="Times,serif" font-size="14.00" fill="#000000">yes, missing</text>
</g>
<!-- 22 -->
<g id="node17" class="node">
<title>22</title>
<polygon fill="none" stroke="#000000" points="965.5557,-36 863.4814,-36 863.4814,0 965.5557,0 965.5557,-36"/>
<text text-anchor="middle" x="914.5186" y="-13.8" font-family="Times,serif" font-size="14.00" fill="#000000">leaf=&#45;0.104951</text>
</g>
<!-- 10&#45;&gt;22 -->
<g id="edge16" class="edge">
<title>10&#45;&gt;22</title>
<path fill="none" stroke="#ff0000" d="M866.6323,-101.269C878.1656,-81.2139 889.8572,-60.8834 898.8007,-45.3317"/>
<polygon fill="#ff0000" stroke="#ff0000" points="902.0369,-46.7249 903.9881,-36.3113 895.9688,-43.2352 902.0369,-46.7249"/>
<text text-anchor="middle" x="899.5186" y="-56.8" font-family="Times,serif" font-size="14.00" fill="#000000">no</text>
</g>
<!-- 11 -->
<g id="node20" class="node">
<title>11</title>
<ellipse fill="none" stroke="#000000" cx="1129.5186" cy="-177.978" rx="76.5038" ry="76.5038"/>
<text text-anchor="middle" x="1129.5186" y="-173.778" font-family="Times,serif" font-size="14.00" fill="#000000">BILL_AMT2&lt;177</text>
</g>
<!-- 5&#45;&gt;11 -->
<g id="edge19" class="edge">
<title>5&#45;&gt;11</title>
<path fill="none" stroke="#0000ff" d="M1216.0765,-356.3853C1202.5278,-328.4596 1184.0088,-290.2895 1167.5766,-256.4205"/>
<polygon fill="#0000ff" stroke="#0000ff" points="1170.5171,-254.4631 1163.003,-246.9939 1164.2192,-257.5187 1170.5171,-254.4631"/>
<text text-anchor="middle" x="1224.1323" y="-290.7559" font-family="Times,serif" font-size="14.00" fill="#000000">yes, missing</text>
</g>
<!-- 12 -->
<g id="node21" class="node">
<title>12</title>
<ellipse fill="none" stroke="#000000" cx="1311.5186" cy="-177.978" rx="87.6125" ry="87.6125"/>
<text text-anchor="middle" x="1311.5186" y="-173.778" font-family="Times,serif" font-size="14.00" fill="#000000">BILL_AMT2&lt;2427.5</text>
</g>
<!-- 5&#45;&gt;12 -->
<g id="edge20" class="edge">
<title>5&#45;&gt;12</title>
<path fill="none" stroke="#ff0000" d="M1250.1721,-354.3327C1258.4653,-330.4919 1269.1808,-299.6879 1279.3298,-270.5122"/>
<polygon fill="#ff0000" stroke="#ff0000" points="1282.7658,-271.2875 1282.7456,-260.6926 1276.1543,-268.9876 1282.7658,-271.2875"/>
<text text-anchor="middle" x="1278.5186" y="-290.7559" font-family="Times,serif" font-size="14.00" fill="#000000">no</text>
</g>
<!-- 13 -->
<g id="node26" class="node">
<title>13</title>
<ellipse fill="none" stroke="#000000" cx="1563.5186" cy="-177.978" rx="91.9559" ry="91.9559"/>
<text text-anchor="middle" x="1563.5186" y="-173.778" font-family="Times,serif" font-size="14.00" fill="#000000">BILL_AMT1&lt;29313.5</text>
</g>
<!-- 6&#45;&gt;13 -->
<g id="edge25" class="edge">
<title>6&#45;&gt;13</title>
<path fill="none" stroke="#0000ff" d="M1563.5186,-358.4016C1563.5186,-336.6244 1563.5186,-308.1623 1563.5186,-280.3024"/>
<polygon fill="#0000ff" stroke="#0000ff" points="1567.0187,-280.079 1563.5186,-270.079 1560.0187,-280.079 1567.0187,-280.079"/>
<text text-anchor="middle" x="1598.1323" y="-290.7559" font-family="Times,serif" font-size="14.00" fill="#000000">yes, missing</text>
</g>
<!-- 14 -->
<g id="node27" class="node">
<title>14</title>
<ellipse fill="none" stroke="#000000" cx="1779.5186" cy="-177.978" rx="76.5038" ry="76.5038"/>
<text text-anchor="middle" x="1779.5186" y="-173.778" font-family="Times,serif" font-size="14.00" fill="#000000">BILL_AMT2&lt;175</text>
</g>
<!-- 6&#45;&gt;14 -->
<g id="edge26" class="edge">
<title>6&#45;&gt;14</title>
<path fill="none" stroke="#ff0000" d="M1590.4384,-369.229C1622.2965,-337.0051 1676.3365,-282.3447 1718.5052,-239.6918"/>
<polygon fill="#ff0000" stroke="#ff0000" points="1721.1563,-241.9885 1725.698,-232.4164 1716.1784,-237.0671 1721.1563,-241.9885"/>
<text text-anchor="middle" x="1672.5186" y="-290.7559" font-family="Times,serif" font-size="14.00" fill="#000000">no</text>
</g>
<!-- 23 -->
<g id="node22" class="node">
<title>23</title>
<polygon fill="none" stroke="#000000" points="1087.8942,-36 983.1429,-36 983.1429,0 1087.8942,0 1087.8942,-36"/>
<text text-anchor="middle" x="1035.5186" y="-13.8" font-family="Times,serif" font-size="14.00" fill="#000000">leaf=0.0461538</text>
</g>
<!-- 11&#45;&gt;23 -->
<g id="edge21" class="edge">
<title>11&#45;&gt;23</title>
<path fill="none" stroke="#0000ff" d="M1090.7425,-111.9852C1076.8981,-88.4236 1062.0712,-63.1897 1051.27,-44.8073"/>
<polygon fill="#0000ff" stroke="#0000ff" points="1054.2481,-42.9668 1046.1644,-36.1181 1048.2128,-46.513 1054.2481,-42.9668"/>
<text text-anchor="middle" x="1098.1323" y="-56.8" font-family="Times,serif" font-size="14.00" fill="#000000">yes, missing</text>
</g>
<!-- 24 -->
<g id="node23" class="node">
<title>24</title>
<polygon fill="none" stroke="#000000" points="1215.0557,-36 1105.9814,-36 1105.9814,0 1215.0557,0 1215.0557,-36"/>
<text text-anchor="middle" x="1160.5186" y="-13.8" font-family="Times,serif" font-size="14.00" fill="#000000">leaf=&#45;0.0426778</text>
</g>
<!-- 11&#45;&gt;24 -->
<g id="edge22" class="edge">
<title>11&#45;&gt;24</title>
<path fill="none" stroke="#ff0000" d="M1144.1108,-102.6735C1148.0152,-82.5245 1151.9967,-61.9777 1155.0597,-46.1707"/>
<polygon fill="#ff0000" stroke="#ff0000" points="1158.5549,-46.531 1157.0213,-36.0478 1151.6828,-45.1993 1158.5549,-46.531"/>
<text text-anchor="middle" x="1160.5186" y="-56.8" font-family="Times,serif" font-size="14.00" fill="#000000">no</text>
</g>
<!-- 25 -->
<g id="node24" class="node">
<title>25</title>
<polygon fill="none" stroke="#000000" points="1342.0557,-36 1232.9814,-36 1232.9814,0 1342.0557,0 1342.0557,-36"/>
<text text-anchor="middle" x="1287.5186" y="-13.8" font-family="Times,serif" font-size="14.00" fill="#000000">leaf=&#45;0.0563107</text>
</g>
<!-- 12&#45;&gt;25 -->
<g id="edge23" class="edge">
<title>12&#45;&gt;25</title>
<path fill="none" stroke="#0000ff" d="M1298.4651,-90.9667C1296.0257,-74.7067 1293.6449,-58.8366 1291.73,-46.0721"/>
<polygon fill="#0000ff" stroke="#0000ff" points="1295.1849,-45.51 1290.2399,-36.1399 1288.2623,-46.5485 1295.1849,-45.51"/>
<text text-anchor="middle" x="1330.1323" y="-56.8" font-family="Times,serif" font-size="14.00" fill="#000000">yes, missing</text>
</g>
<!-- 26 -->
<g id="node25" class="node">
<title>26</title>
<polygon fill="none" stroke="#000000" points="1464.8942,-36 1360.1429,-36 1360.1429,0 1464.8942,0 1464.8942,-36"/>
<text text-anchor="middle" x="1412.5186" y="-13.8" font-family="Times,serif" font-size="14.00" fill="#000000">leaf=0.0252874</text>
</g>
<!-- 12&#45;&gt;26 -->
<g id="edge24" class="edge">
<title>12&#45;&gt;26</title>
<path fill="none" stroke="#ff0000" d="M1358.4704,-103.6091C1371.6477,-82.737 1385.1487,-61.3522 1395.361,-45.1766"/>
<polygon fill="#ff0000" stroke="#ff0000" points="1398.5874,-46.6222 1400.9664,-36.2979 1392.6684,-42.8853 1398.5874,-46.6222"/>
<text text-anchor="middle" x="1395.5186" y="-56.8" font-family="Times,serif" font-size="14.00" fill="#000000">no</text>
</g>
<!-- 27 -->
<g id="node28" class="node">
<title>27</title>
<polygon fill="none" stroke="#000000" points="1584.5557,-36 1482.4814,-36 1482.4814,0 1584.5557,0 1584.5557,-36"/>
<text text-anchor="middle" x="1533.5186" y="-13.8" font-family="Times,serif" font-size="14.00" fill="#000000">leaf=&#45;0.104762</text>
</g>
<!-- 13&#45;&gt;27 -->
<g id="edge27" class="edge">
<title>13&#45;&gt;27</title>
<path fill="none" stroke="#0000ff" d="M1546.5025,-87.2382C1543.708,-72.336 1541.0085,-57.9408 1538.8016,-46.1725"/>
<polygon fill="#0000ff" stroke="#0000ff" points="1542.2081,-45.3477 1536.9248,-36.1642 1535.328,-46.638 1542.2081,-45.3477"/>
<text text-anchor="middle" x="1577.1323" y="-56.8" font-family="Times,serif" font-size="14.00" fill="#000000">yes, missing</text>
</g>
<!-- 28 -->
<g id="node29" class="node">
<title>28</title>
<polygon fill="none" stroke="#000000" points="1706.8942,-36 1602.1429,-36 1602.1429,0 1706.8942,0 1706.8942,-36"/>
<text text-anchor="middle" x="1654.5186" y="-13.8" font-family="Times,serif" font-size="14.00" fill="#000000">leaf=0.0166667</text>
</g>
<!-- 13&#45;&gt;28 -->
<g id="edge28" class="edge">
<title>13&#45;&gt;28</title>
<path fill="none" stroke="#ff0000" d="M1609.0186,-97.989C1619.8805,-78.8937 1630.7424,-59.7984 1639.1283,-45.0561"/>
<polygon fill="#ff0000" stroke="#ff0000" points="1642.3545,-46.4632 1644.2566,-36.0405 1636.2699,-43.0022 1642.3545,-46.4632"/>
<text text-anchor="middle" x="1640.5186" y="-56.8" font-family="Times,serif" font-size="14.00" fill="#000000">no</text>
</g>
<!-- 29 -->
<g id="node30" class="node">
<title>29</title>
<polygon fill="none" stroke="#000000" points="1834.0557,-36 1724.9814,-36 1724.9814,0 1834.0557,0 1834.0557,-36"/>
<text text-anchor="middle" x="1779.5186" y="-13.8" font-family="Times,serif" font-size="14.00" fill="#000000">leaf=&#45;0.0857143</text>
</g>
<!-- 14&#45;&gt;29 -->
<g id="edge29" class="edge">
<title>14&#45;&gt;29</title>
<path fill="none" stroke="#0000ff" d="M1779.5186,-101.269C1779.5186,-81.7815 1779.5186,-62.034 1779.5186,-46.6635"/>
<polygon fill="#0000ff" stroke="#0000ff" points="1783.0187,-46.3113 1779.5186,-36.3113 1776.0187,-46.3113 1783.0187,-46.3113"/>
<text text-anchor="middle" x="1814.1323" y="-56.8" font-family="Times,serif" font-size="14.00" fill="#000000">yes, missing</text>
</g>
<!-- 30 -->
<g id="node31" class="node">
<title>30</title>
<polygon fill="none" stroke="#000000" points="1956.8942,-36 1852.1429,-36 1852.1429,0 1956.8942,0 1956.8942,-36"/>
<text text-anchor="middle" x="1904.5186" y="-13.8" font-family="Times,serif" font-size="14.00" fill="#000000">leaf=0.0790015</text>
</g>
<!-- 14&#45;&gt;30 -->
<g id="edge30" class="edge">
<title>14&#45;&gt;30</title>
<path fill="none" stroke="#ff0000" d="M1826.7757,-117.4972C1846.6178,-92.1027 1868.6429,-63.9146 1884.1689,-44.0439"/>
<polygon fill="#ff0000" stroke="#ff0000" points="1887.0007,-46.1044 1890.3997,-36.0696 1881.4848,-41.7945 1887.0007,-46.1044"/>
<text text-anchor="middle" x="1880.5186" y="-56.8" font-family="Times,serif" font-size="14.00" fill="#000000">no</text>
</g>
</g>
</svg>
